<svg version="1" xmlns="http://www.w3.org/2000/svg" width="1365.333" height="1365.333" viewBox="0 0 1024.000000 1024.000000"><path d="M0 512v512h1024V608.2l-2.2-.5c-1.3-.3-6.6-.8-11.9-1.2l-9.5-.7 5-22 5.1-22 6.8.4 6.7.4V0H0v512zM36 28.5c0 3.1 1.7 3.3 2.2.2.2-1.6 1-2.2 2.8-2.2 1.8 0 2.6.6 2.8 2.2.5 3.1 2.2 2.9 2.2-.2 0-1.8.5-2.5 2-2.5 2.3 0 2.4 1.1.7 8.5-1 4-1.7 5.1-3.5 5.3-1.8.3-2.3-.2-2.8-2.7-.9-4.5-2.1-4.7-2.8-.5-.6 2.9-1.1 3.5-2.8 3.2-1.7-.2-2.5-1.5-3.5-5.3-1.8-7-1.7-8.5.7-8.5 1.5 0 2 .7 2 2.5zm65 4.5c0 5.6-.3 7-1.5 7-1.1 0-1.5-1.2-1.5-4.6 0-4.1-.2-4.5-2-3.9-2.8.9-2.6-1.8.3-3.8 4.1-2.9 4.7-2.2 4.7 5.3zm7.1 0c-1.2 5.1-2 7-3.2 7-1.4 0-1.4-.6-.1-7 1.2-5.3 2-7 3.2-7 1.5 0 1.6.5.1 7zm9.8-6.1c.9.6 1.2 1.9.8 4-1 4.8.9 4.6 3.8-.4 3.7-6.2 6.5-6.2 6.5-.1 0 2.6.5 4.7 1.3 5 1 .5 1 .7 0 1.2-.7.3-1.3 1.2-1.3 2s-.9 1.4-2 1.4-2-.7-2-1.5c0-1-1-1.5-2.9-1.5-1.6 0-3.1.6-3.5 1.5-.6 1.6-5.2 2-7.3.7-1.4-.9-1.4-10.2 0-12 1.1-1.4 4.6-1.6 6.6-.3zM59 34.8l.6 5.3-4.6-.3c-4.1-.3-4.5-.6-4.8-3-.3-2.2.2-3 2.2-3.8 3.3-1.2 3.3-1.9.1-1.2-1.4.2-2.5 0-2.5-.6 0-1.4 2-2.1 5.5-1.9 2.9.2 3 .5 3.5 5.5zm4.7-3.8c.3 1.1.9 2 1.3 2s1-.9 1.3-2c.3-1.1 1.4-2 2.5-2 2 0 2 0-.1 5.5-2.5 7-4.7 7.3-7 .7-2.1-5.8-2.1-6.2-.1-6.2.9 0 1.8.9 2.1 2zm16.1-.8c.7.7 1.2 2 1.2 3 0 1.3-.8 1.8-3.1 1.8-2 0-2.9.4-2.6 1.2.2.8 1.6 1.2 3.2 1 2.6-.4 2.8-.2 1.6 1.2-1.6 1.9-6.2 2.1-7.9.4-1.6-1.6-1.6-7 0-8.6.7-.7 2.4-1.2 3.8-1.2s3.1.5 3.8 1.2zm7.2.3c0 .8-.9 1.5-2 1.5s-2-.7-2-1.5.9-1.5 2-1.5 2 .7 2 1.5zm453.4 5.6c1.9 1.5 2.6 3 2.6 5.5 0 7.1-7.4 10.1-12.7 5.1-3.1-2.7-3-7.1.2-10.2 3-3 6.4-3.2 9.9-.4zM87 38.5c0 .8-.9 1.5-2 1.5s-2-.7-2-1.5.9-1.5 2-1.5 2 .7 2 1.5zM37 50.2l1.3 4.3 1.4-4.3c1.4-4 1.7-4.2 5.4-4.2 2.1 0 3.9.4 3.9 1 0 .5-1 1-2.3 1-1.8 0-2.6 1.1-4.3 5.7-1.5 4.3-2.6 5.9-4.1 6.1-1.7.3-2.4-.7-4.2-5.9-2.6-7.6-2.6-7.9-.3-7.9 1.3 0 2.3 1.3 3.2 4.2zm28-2.8c0 .8.6 1.7 1.3 2 1 .5 1 .7 0 1.2-1.5.7-1.8 7.4-.3 7.4.6 0 1 .4 1 1 0 .5-1.1 1-2.4 1-2.4 0-3.6-2.1-3.6-6.8 0-2-.2-2.1-2.1-1-1.7 1.1-2.3 1.1-2.6 0-.7-1.9-2.3-.4-2.3 2.2 0 3 1 3.9 2.7 2.4 1.6-1.3 3.9.4 2.9 2.1-1.1 1.6-6.2 1.3-8-.5-3.9-3.9-.6-10 5-9.1 2.4.4 3.7 0 5-1.4 2-2.3 3.4-2.5 3.4-.5zm26-.4c0 .5-.9 1-2 1s-2-.5-2-1c0-.6.9-1 2-1s2 .4 2 1zm42.4 1.2c.9 1.2 1.6 3.4 1.6 4.8 0 5.4-5.5 9.1-8.8 5.8-1.6-1.6-1.6-10 0-11.6 1.9-1.9 5.5-1.4 7.2 1zm7.6-1c0 .9.3.9 1.2 0 3.3-3.3 8.8.4 8.8 5.8 0 3.5-2.7 7-5.4 7-3.3 0-4.6-1.9-4.7-7l-.1-4.5-1.5 5.7c-1 3.8-2 5.8-3 5.8-1.5 0-1.4-1.6.8-10.3.9-3.4 3.9-5.4 3.9-2.5zm-92 7.3c0 4.8-.2 5.5-2 5.5s-2-.7-2-5.5.2-5.5 2-5.5 2 .7 2 5.5zm27.8-4.3c1.7 1.7 1.5 7.3-.2 8.7-2.4 2-6.9.9-8.5-2-1.3-2.4-1.3-2.9.2-5.3 1.9-2.8 6.3-3.6 8.5-1.4zM91 54.5c0 4.8-.2 5.5-2 5.5-1.7 0-2-.7-2-5 0-4.8-.1-5-2-4-1.5.8-2 2.1-2 5 0 3.3-.3 4-2 4-1.8 0-2-.7-2-5.5V49h12v5.5zm9.3-4c1.3 1.3 1.6 1.3 2.7 0 1.7-2 6.4-1.9 8.1.2 1.3 1.5 1.1 1.6-1.8 1-1.8-.4-3.3-.3-3.3.2s1.4 1.1 3 1.4c2.3.5 3 1.2 3 3.1 0 3.4-6.1 5.1-8.8 2.4-.9-.9-1.5-.9-2.4 0-.7.7-2.4 1.2-3.8 1.2s-3.1-.5-3.8-1.2c-1.6-1.6-1.6-7 0-8.6 1.6-1.6 5.4-1.5 7.1.3zm17.7 0c0 .8-.9 1.5-2 1.5s-2-.7-2-1.5.9-1.5 2-1.5 2 .7 2 1.5zm0 8c0 .8-.9 1.5-2 1.5s-2-.7-2-1.5.9-1.5 2-1.5 2 .7 2 1.5zm484.6 75c2 3.1 1 6.3-2.3 7.1-3.5.9-5.7-.7-6.1-4.2-.7-5.2 5.5-7.4 8.4-2.9zm268.2 19.2c-.2 1-1 1.8-1.8 1.8s-1.6-.8-1.8-1.8c-.2-1.2.3-1.7 1.8-1.7s2 .5 1.8 1.7zm-314.3 87.7c1.3 1.9 1.4 2.9.6 4.5-2.5 4.5-9.1 3.3-9.1-1.7 0-5.4 5.6-7.2 8.5-2.8zm170.8 41.8c5.5 2.9 6.1 7.6 1.7 12-2.5 2.4-3.6 2.9-5.8 2.3-6.7-1.6-8.8-8.9-3.8-13.2 3-2.6 4.7-2.8 7.9-1.1zm36.2 11.3c6.3 6.3-1.8 16-8.8 10.5-3.7-2.9-3.7-8-.1-10.9 3.5-2.7 5.9-2.6 8.9.4zm-23 11.5c0 2-.6 2.6-2.8 2.8-1.8.2-2.9-.2-3.3-1.2-1.1-2.8.4-4.8 3.3-4.4 2.2.2 2.8.8 2.8 2.8zM634 308c2.7 2.7 2.5 5.6-.5 8.5-2.7 2.8-3.7 3-6.8 1.4-2.8-1.5-3.7-2.8-3.7-5.8 0-5.5 7-8.1 11-4.1zm-169 15c4.2 4.2.8 12-5.2 12-5.8 0-9.1-7.8-5.1-12.2 2.2-2.4 7.7-2.4 10.3.2zm207.6 2.3c2.1 2.5 2.5 3.8 2 6.6-1.4 9.2-13.6 11-17.2 2.6-1.7-4.1-1.1-7.5 1.9-10.3 4.2-3.9 9.5-3.4 13.3 1.1zm91 9c6 5.2.2 14.8-7 11.5-5.3-2.3-5.4-10.1-.2-12.6 3.2-1.6 4.2-1.4 7.2 1.1zm-63.5 3.6c5.8 5.8 2.4 15.1-5.4 15.1-3.5 0-4.7 1.3-4.7 4.8 0 2.9-4.1 6.2-7.7 6.2-6.5 0-12.4-10.5-9.7-17.5.9-2.3 6.2-4.8 8.9-4.1 1.8.5 2.8-.1 4.6-2.5 3.9-5.6 9.6-6.4 14-2zM733 346c2.4 2.4 2.5 4.8.4 7.8-2.2 3.1-7.8 3-9.9-.2-4.2-6.4 4.1-13 9.5-7.6zm-72 0c2.6 1.4 3.4 5.7 1.5 8.6-3.1 4.8-11.5 2.1-11.5-3.8 0-4.3 5.8-7 10-4.8zm59.8 4.4c.5 2.5-1.2 3.9-3.7 3.1-2-.6-2.8-3.4-1.4-4.9 1.3-1.3 4.8-.1 5.1 1.8zm-106.7 12.5c2 2 2.9 3.9 2.9 6.1 0 2.2-.9 4.1-2.9 6.1s-3.9 2.9-6.1 2.9c-2.2 0-4.1-.9-6.1-2.9s-2.9-3.9-2.9-6.1c0-2.2.9-4.1 2.9-6.1s3.9-2.9 6.1-2.9c2.2 0 4.1.9 6.1 2.9zM884 364c1.1 1.1 2 3.1 2 4.5s-.9 3.4-2 4.5-3.1 2-4.5 2-3.4-.9-4.5-2-2-3.1-2-4.5.9-3.4 2-4.5 3.1-2 4.5-2 3.4.9 4.5 2zm-313.8 1.7c2.4 2.1 2.3 4.8-.2 7.3-2.4 2.4-5.3 2.6-7.4.4-1.9-1.8-2.1-6.5-.4-8.2 1.7-1.7 5.8-1.5 8 .5zM720.5 406c0 1.8-.6 2.6-2.3 2.8-2.7.4-4-2.2-2.2-4.4 1.9-2.2 4.5-1.3 4.5 1.6zm41.6 7.9c2.1 2.2 2.9 3.9 2.9 6.6 0 2.7-.8 4.4-2.9 6.6-2.2 2.1-3.9 2.9-6.6 2.9-9.4 0-13-13-4.8-17.4 4.4-2.4 8.1-2 11.4 1.3zm14.7 13.3c1.8 1.8 1.5 4.3-.8 6.3-1.7 1.5-2.4 1.6-4.5.7-4.3-2-2.8-8.2 2-8.2 1.2 0 2.6.5 3.3 1.2zm-190 4.4c5.2 3.4 5.5 10.3.8 15-4.3 4.3-9 4.6-13.5.8-10.2-8.5 1.5-23.1 12.7-15.8zm-37 4c.4 2.5-2.2 4.9-4.3 4-2.2-.8-2.9-3.4-1.4-5.2 1.7-2.1 5.3-1.4 5.7 1.2zm117 3.1c3 4.1 0 9.3-5.4 9.3-3.7 0-5.4-2.1-5.4-6.4 0-5 7.5-7.1 10.8-2.9zm48.6.9c3 2.9.9 8.4-3.1 8.4-2.3 0-5.3-2.9-5.3-5.1 0-2.3 2.6-4.9 5-4.9 1 0 2.6.7 3.4 1.6zm-20.4 7.6c1.3 2.5 1.3 3.1 0 5.5-2.1 3.8-8.1 4.5-10.4 1.1-.9-1.2-1.6-2.9-1.6-3.8 0-.9.7-2.6 1.6-3.8 2.3-3.4 8.3-2.7 10.4 1zm-433.8 9.9c15.1 1.6 23.2 2 37.3 1.6 16.3-.5 21-.2 49.5 3.1 23.1 2.7 30.2 3.8 26.5 4.2l-5 .5-.9 21c-.4 11.5-.9 21.1-1 21.1 0 .1-9.3-1.3-20.6-3l-20.5-3.1.3-17.8.4-17.7H316l-.1 5.2c-.1 10.9-1.6 38.9-2.1 39.4-.3.3-13.2-1.5-28.6-4-15.4-2.6-28.5-4.6-29.1-4.6-.7 0-1.1-2.2-1.1-5.4v-5.5l-4.7-.6c-9-1.2-8.3.4-8.3-18.5v-16.9l-4.7-.4-4.8-.3 4.7-.2c2.5-.1 13.3.7 24 1.9zm-46.2-.2l-7.5.6 10 1c5.5.5 8.6 1.1 6.8 1.3l-3.1.3-.4 17.4c-.2 9.5-.6 17.7-1 18-.6.7-12-.7-29.5-3.7l-6.3-1V456l19.3.2c12.9.1 16.7.4 11.7.7zm430.1 5.5l15.4 5.4-.2 11.1-.2 11.1 5.7.1c3.1.1 11.6.5 18.7.8 9.4.6 11 .8 5.8.9-3.9.1-7.4.6-7.7 1-.3.5 1.8.7 4.7.5 2.9-.2 6.3 0 7.7.3l2.5.7-2.5.7c-2 .6-1.4.8 2.5.9 3.6.1 4.6.4 3.5 1.1-1 .7.9 1 6.5 1.1 7.6.2 7.7.2 3 .9-2.7.4-6.3.5-8 .3-2.6-.4-2.8-.3-1.2.7 1.1.7 3.1 1 4.5.8 1.5-.3 5.4-.2 8.7.2l6 .7-7.5.2c-5.3.1-7.1.4-6 1.1 1.7 1.1 17.9 1.1 22.5.1 2.7-.6 4.8.5 18.5 9.7 8.5 5.8 15.6 10.6 15.7 10.6.2.2-4.2 31.2-5.2 37.3l-.6 3.3-15.5-12.5c-8.6-6.9-16-12.2-16.5-11.9-1.6 1-1 2.3 1.4 2.7 2 .4 2 .4-.4.6-1.4 0-3.6 1.2-4.8 2.5l-2.3 2.4 2.8.5c2.4.3 2.2.4-1.1.7-3.9.2-3.9.3-1 1s2.8.8-1.1.9c-6.7.2-12.4 2.8-9.6 4.4.4.2.1.2-.5.1-.7-.2-1.3.5-1.3 1.5 0 2 1.9 3.1 5.1 3.1 1 0 1.8.3 1.7.7-.1.5.5 2 1.2 3.6.7 1.5 1 3 .6 3.5-.4.4-4.8.9-9.8 1.2l-9 .5.6-2.7c.5-2.6.4-2.7-3.4-2.5-5.3.2-7.4-2-7.3-7.4.1-3.8-.1-4.1-2.4-3.6-1.3.2-2.1.1-1.6-.3.4-.5 1.9-1 3.3-1.3 1.4-.2-1.2-.5-5.7-.6-4.5 0-8.4.3-8.7.8-.3.4 3.7 4.7 8.9 9.4s8.6 8.5 7.7 8.5c-.9-.1-3.7.2-6.2.7-4 .7-4.3.6-3.1-.9.7-.9 2.8-1.6 4.5-1.6 3-.1 3-.2-4.9-7.5l-8-7.4-1.2 3.2-1.3 3.2.6-3.2.5-3.2-9.6 4c-5.2 2.2-10.1 3.7-10.7 3.3-.7-.4-.8-.3-.4.4s1.8 1.2 3.2 1.2c2.7 0 2.7.7-.2 7.4-.9 2.2-1.4 2.7-1.8 1.6-.3-.8-1.2-3.3-2-5.6l-1.4-4.1 6.8-8.9c3.8-4.9 6.6-9.2 6.4-9.6-.5-.7 1-1.2 2.9-.9 1.1.2.8-.6-.9-2.3-.8-.9-3.2-1.7-5.2-1.7l-3.7-.1 3-.8c2.9-.7 2.9-.8-1-1-3.3-.3-3.5-.4-1.2-.7 2.8-.4 2.8-.5 1.1-2.4-.9-1-3-1.9-4.6-1.9-1.5 0-2.8-.5-2.8-1 0-.6.9-1 2-1 1.8 0 1.9-.3 1-2-.8-1.5-2.2-2-5.3-2.1-4.1-.2-4.1-.2-.9-.8 3.3-.6 4.5-2.3 2-2.9-.9-.2-.8 0 .2.7.9.7 1 1.1.3 1.1-.6 0-1.5-.5-1.8-1-.3-.6-3.3-1-6.6-1H633v24.1l-6.7-.6c-3.8-.3-8-.8-9.5-1-3.8-.6-3.5.2.5 1.4l3.2.9-3.2.1-3.3.1v16h32.5l-.4 26-.3 26.1 2.6 3.9 2.6 4H535.3l-2.7-9.5c-2.4-8.8-2.6-10.9-2.6-30V562h63v-16H395v-19l3.8-.2 3.7-.1-3.7-.4c-3.3-.4-3.8-.8-3.8-2.9V521l-33.2-.1c-36-.2-35.1-.8 4.3-3 17.3-.9 23.2-1.6 23.6-2.6.3-.7 1.4-1.3 2.5-1.3 1 0 1.6-.5 1.3-1-.3-.6-3.2-1.1-6.3-1.2l-5.7-.1 5.5-.6c3.5-.4 5-.9 4.2-1.4-.7-.5-1.9-.7-2.6-.4-.7.3-2.8.2-4.7-.3l-3.4-.8 4.3-.1c4-.1 6.2-2.1 2.3-2.1-2.9 0-3.7-2-.9-2.1l2.3-.2-2.2-.4c-1.3-.2-2.3-.9-2.3-1.4 0-.5-1.5-.9-3.2-1-2.9-.1-2.7-.2 1.7-1.4 2.8-.7 4-1.3 2.8-1.4-1.3 0-2.3-.7-2.3-1.4 0-3.2 1.5-5.8 3.5-6.3 1.3-.3 2.9-1.9 3.5-3.5 1.5-3.5 5.8-7.3 10.9-9.7 11.3-5.2 70.1 2.3 83.9 10.8 2 1.2 5.2 2.1 8.5 2.1l5.2.2-4 .7c-3.7.7-3.6.7 2.5 1l6.5.3-5.5.7-5.5.7 6 .3 6 .3-5 .7-5 .7 6 .3c6 .4 6 .4 1.3.7-2.7.2-4.8.9-4.8 1.5s1.1.8 2.5.6c1.4-.3 2.8-.1 3.1.3.3.5 11.4.9 24.7.9 13.3 0 23.7-.4 23.1-.8-.8-.5-.9-6.2-.3-20.7.4-11 .8-20.3.8-20.8.1-.4 17.8-.7 39.4-.7h39.3l15.5 5.4zm57.8 7c1.5 1.8.3 4.6-2 4.6-2.2 0-3.4-2.2-2.5-4.5.7-1.9 3-1.9 4.5-.1zm-16.4 10c2.4 3.6.5 6.8-3.8 6.4-2.7-.2-3.3-.8-3.5-3.1-.7-5.5 4.4-7.8 7.3-3.3zm35.4 0c1.7 2 .2 4.8-2.3 4.4-2.4-.3-3.4-3.7-1.4-4.9 1.8-1.2 2.4-1.1 3.7.5zM243 524.5V540h58v22h6v-17.4c0-14.9.2-17.5 1.6-18 .9-.3 5.8-.6 11-.6h9.4v36h66l-.1 20.7v20.8l-5.2 9.5-5.2 9.5-76.3.3-76.2.2v-37h-71v-8.3c0-4.5-.3-12.5-.6-17.8l-.7-9.6 14.9-5.1 14.9-5.2h35l-.3-14.9c-.4-17.2-1.4-15.8 11.1-16l7.7-.1v15.5zm679.8 38.8l16.5 11.2 6.4 9.8c3.5 5.4 6.3 10 6.3 10.2 0 .3-7.9-4.9-17.7-11.5-9.7-6.6-17.9-12-18.3-12-.4 0-7.6 7.7-16 17-8.5 9.4-15.7 16.7-16 16.3-.4-.5-2.9-4.9-5.5-10l-4.8-9.2 1.9-2.4c6.8-8.9 28.1-31.6 29.2-31.2.8.3 8.8 5.6 18 11.8zm-206.9-6.8c0 .5-.4.3-.9-.5s-.9-2.2-.9-3c0-1.6 1.7 1.6 1.8 3.5zm-50.6 5.9c2 1.5 2.1 3.7.4 8.5-1.1 3.1-1.8 3.6-7.4 5.1l-6.3 1.7v-2.3c0-3.6 4.1-13.3 5.9-13.7 3.1-.9 5.6-.6 7.4.7zm9.9 7.3c1.1 1.4.9 1.5-5.5 3.2-3.3.8-3.7.8-3.3-.7.3-.9.8-2.9 1.2-4.4l.6-2.8 3 1.8c1.6.9 3.4 2.3 4 2.9zm-24.8 5.2c.8 4.3-.4 3.4-1.4-1.1-.6-2.3-.8-.2-.7 6.7 0 6.7.2 8.5.6 5.5l.6-4.5 3.8 9.5c2 5.3 3.7 9.9 3.7 10.3 0 .4-2.1 3.1-4.7 6l-4.6 5.2 5.1-5.1 5.1-5.1 1.5 3.7c.8 2 1.8 5.4 2.2 7.5.6 3.6.6 3.8-1.7 3.2-1.3-.3-4.3-.9-6.7-1.3-2.3-.4-4.5-1.1-4.9-1.7-.9-1.4-1.4-39.4-.6-43.2.5-2.6.7-2.7 1.3-1 .4 1.1 1 3.5 1.4 5.4zM717 571c0 2.6-3.4 6-6.1 6-1.1 0-1.8.4-1.5.8.3.5-1.1.7-3 .6-1.9-.2-3.4.1-3.4.6 0 2.2-2.9.7-7-3.8l-4.5-4.7 4.7 4.4c2.6 2.5 5 4.2 5.3 3.9.3-.3-.4-2.2-1.6-4.2-2.5-4.3-2.3-4.4 8.1-4.9 4.1-.2 7.8-.4 8.3-.5.4-.1.7.7.7 1.8zm-27 3.6c0 2.1.8 4.7 2 6.2l2.1 2.6-2.3 1.3c-1.3.7-2.6 1.2-3 1.3-.4 0-2.6-2.6-4.9-5.8-4.4-6-6.8-8.8-5.4-6.2.5.8 2.6 3.8 4.7 6.7 2.1 2.9 3.8 5.4 3.8 5.6 0 .6-14 7.1-14.4 6.6-.7-.6 4-18.9 5.1-19.9.9-1 4.5-1.7 9.1-1.9 3-.1 3.2.1 3.2 3.5zm-16.6 8.8l-2.7 10.7-4.9 2.5c-2.8 1.4-5.2 2.4-5.4 2.2-.6-.6 4.7-22.2 5.8-23.3.8-.9 8.9-3.4 9.6-3 .1.2-.9 5.1-2.4 10.9zm61.8-7.8c13 4.4 13.2 21 .4 26.8-2.9 1.3-3.2 1.2-11.8-5.6-7-5.5-8.8-7.5-8.8-9.5 0-5 8.5-13.3 13.6-13.3 1.1 0 4.1.7 6.6 1.6zm-73.1 10.1c-1.4 6-3.1 11.3-3.7 12-.8.9-2-1.1-4.8-8-3.9-10-4.1-10.7-2.6-10.7.5 0 2.3 4.2 3.9 9.2 1.6 5.1 3 8.8 3 8.1.1-.7-1.1-4.9-2.5-9.3-1.4-4.5-2.4-8.3-2.2-8.5.2-.2 2.8-1 5.8-1.8s5.6-1.6 5.6-1.6c.1-.1-1 4.7-2.5 10.6zm32.3.2c.4.5.1 2.2-.5 3.8l-1 2.8-1.9-2.5c-1.8-2.3-1.8-2.6-.3-3.8 2-1.4 3-1.5 3.7-.3zm-2.4 7.4c0 .5-1.3 1.4-3 2l-3 1.1v8.8c0 8.3-.1 8.8-2.2 9.2-5.5 1.2-6.6 1-11.1-2.9l-4.7-4 1.8-6.3 1.7-6.2 8-3.9 8-3.9 2.2 2.6c1.3 1.5 2.3 3.1 2.3 3.5zm38.7 10.4c-.2.1-2.6-.4-5.3-1.2-3.7-1.1-5.6-2.4-7.6-5.4-4.6-6.5-3.2-6.5 5.2 0 4.4 3.4 7.9 6.4 7.7 6.6zm-61-6.3c-.3.8-.9 3.1-1.3 5-.3 2-.8 3.6-1.1 3.6-.2 0-2-1.2-4-2.7l-3.5-2.7 4.4-2.2c5.1-2.7 6.2-2.9 5.5-1zm-3.2 9.6c.8 1.3-1.3 8.8-2.7 9.6-.6.4-.8.3-.4-.4.3-.6 0-2.8-.8-4.9-.8-2.1-1.7-5.1-2.1-6.6l-.6-2.9 3 2.1c1.7 1.2 3.3 2.6 3.6 3.1zm8.4 7.3c.9 1.2.6 1.6-2 2.1-6.4 1.2-7.1.9-6.4-2.7.4-1.7.9-3.5 1.2-4 .5-.8 5.2 2.2 7.2 4.6zm-11.9 5.8c0 1.6-.8 1.9-5.3 1.9-4.7 0-5.6-.3-7.5-3-1.2-1.6-2.2-3.1-2.2-3.3 0-.2 3.4.3 7.5 1.1 6.1 1.2 7.5 1.8 7.5 3.3zm23-3.9c0 .7-.3 2.3-.6 3.6l-.7 2.3-3.1-2.8-3.1-2.8 2.4 2.7 2.4 2.8h-6.8c-5.1 0-7.3-.4-8.8-1.8-1.8-1.6-1.6-1.8 7.4-3.3 5.2-.9 9.7-1.7 10.2-1.8.4 0 .7.5.7 1.1zm-21.3 5c-.3.8-.6.5-.6-.6-.1-1.1.2-1.7.5-1.3.3.3.4 1.2.1 1.9zm2.8-.2c.3.5.1 1-.4 1-.6 0-1.1-.5-1.1-1 0-.6.2-1 .4-1 .3 0 .8.4 1.1 1zm-71.6 38.5c7.8 4 5.5 16.4-3.5 18.1-9.3 1.7-15.3-9.9-8.5-16.7 3.3-3.3 7.5-3.8 12-1.4z"/><path d="M114.2 30c0 1.4.2 1.9.5 1.2.2-.6.2-1.8 0-2.5-.3-.6-.5-.1-.5 1.3zM123.5 34c-.3.5-.1 1 .4 1 .6 0 1.1-.5 1.1-1 0-.6-.2-1-.4-1-.3 0-.8.4-1.1 1zM113.5 35c-.4.6-.3 1.6.3 2.2.6.6 1.2.6 1.7-.2.4-.6.3-1.6-.3-2.2-.6-.6-1.2-.6-1.7.2zM54.1 35.4c-.7.8-.8 1.7-.3 2 .6.3 1.3-.1 1.6-1 .9-2.3.2-2.8-1.3-1zM75 32c0 .5.5 1 1 1 .6 0 1-.5 1-1 0-.6-.4-1-1-1-.5 0-1 .4-1 1zM128.6 50.5c-.8 3 .3 7.7 1.5 6.9.5-.3.9-2.3.9-4.4 0-4.5-1.5-6.1-2.4-2.5zM144.6 50.5c-.8 3 .3 7.7 1.5 6.9.5-.3.9-2.3.9-4.4 0-4.5-1.5-6.1-2.4-2.5zM71.4 52.4c-.8 2.1-.1 4.9 1.3 5.3 1.3.5 2.1-2.3 1.5-5-.5-2.1-2.1-2.2-2.8-.3zM95.5 52c-.3.5.1 1 .9 1 .9 0 1.6-.5 1.6-1 0-.6-.4-1-.9-1-.6 0-1.3.4-1.6 1zM98.8 55c-2.2.3-3.5.9-3 1.5.8 1.1 12.2 1.4 12.2.3 0-1.2-5.6-2.4-9.2-1.8zM289 460.9c-3.7.5-1.1 1 13.5 2.9 9.9 1.2 18.3 2.2 18.8 2.2.4 0 .7-1.4.7-3v-3l-14.2.2c-7.9 0-16.3.4-18.8.7zM663.8 491.7c2.3.2 5.9.2 8 0 2-.2.1-.4-4.3-.4-4.4 0-6.1.2-3.7.4zM662.3 493.7c.9.2 2.3.2 3 0 .6-.3-.1-.5-1.8-.5-1.6 0-2.2.2-1.2.5zM507.8 501.6c-.3.3-2.4.5-4.7.6-2.2 0-3.8.4-3.5.9.3.5 4.9.7 10.2.5 5.3-.2 18.3-.5 28.7-.5 12.7-.1 18.5-.5 17.5-1.1-1.6-1-47.2-1.4-48.2-.4zM591 502c0 1.2 17.3 1.2 26.5 0 4.6-.5 2.1-.7-10.2-.9-10.3 0-16.3.3-16.3.9zM612.1 503.7c-.8.3 3.1 2.9 9.8 6.5 8.6 4.6 11.1 6.4 11.1 8 0 1.9.4 2 5.3 1.4 2.8-.3 6.2-.6 7.5-.6 1.3 0 2.2-.6 2.2-1.5 0-.8-.9-1.5-2-1.5s-2-.5-2-1c0-.6.9-1 2-1s2-.5 2-1c0-.6-.5-1-1.1-1-.6 0-5-1.9-9.8-4.2-7.4-3.6-9.7-4.2-16.1-4.5-4.1-.1-8.1 0-8.9.4zM727.1 505.1c-1.4.5-3.1.7-3.8.4-.8-.2-1.1 0-.8.5.3.6.1 1-.6 1-.9 0-1 .3-.2 1.1 1.7 1.7 6.4.6 8.1-1.9 1.6-2.4 1-2.6-2.7-1.1z"/><path d="M730.6 506.5c-.9 1.4-1.4 3-1.1 3.5.3.6-.1 1-1 1-.8 0-1.8.7-2.1 1.5-.5 1.1-1.1 1.2-2.6.4-1-.6-2.4-.8-3.1-.5-.7.2-.4.5.6.5 1.1.1 1.5.5 1.1 1.3-.5.7-.2.9.8.6.8-.4 2.1-.2 2.9.3 1.1.7 1 .9-.6 1-1.4.1-1 .4 1 .9 2.8.7 2.9.8.5 1-2.4.2-2.4.2.4 1 2 .6 3.7.5 5.7-.5 1.5-.8 3.2-1.5 3.6-1.5 1.1.1-7.9 4.9-9.2 4.9-.5.1-.3-.4.5-.9 1.2-.8 1-1-.8-1-2.9 0-2 1.7 1.6 3.2l2.7 1.1-2.5.6c-1.8.5-2.1.9-1 1.2 1.5.6 29.2-1.8 31.9-2.7.8-.3-2.6-3.2-8.3-7.1-8.7-6-10.2-6.7-13.9-6.4-4.1.3-4.2.3-2.4-1.7 1.8-2 1.8-2.1-.2-3.1-2.6-1.5-2.6-1.5-4.5 1.4zm9.3 6c-.9.9-2.3 1.3-3.2.9-2.8-1-1.9-2.4 1.5-2.4 2.9 0 3.1.2 1.7 1.5zM715.5 506c1.1.5 2.7.9 3.5.9.9 0 .8-.4-.5-.9-1.1-.5-2.7-.9-3.5-.9-.9 0-.8.4.5.9z"/><path d="M718.1 510.4c.8.8 7.8 1 8.5.3.4-.4-1.4-.7-4.1-.7-2.7 0-4.6.2-4.4.4zM372.5 518.5l-17 1.2 20 .1c11 0 19.4-.2 18.6-.5-1.1-.5-1.1-.7 0-1.4 1.6-1 1.8-1-21.6.6zM744.2 526.1c-9 .9-16.6 2-17 2.3-.3.3.4.6 1.6.6 1.2 0 2.2.4 2.2 1 0 .5-.9 1-2 1-3 0-2.7 4 .3 4.1 2.1.1 2.1.1-.3.9l-2.5.7 3 .8c2.4.7 2.6.9 1.1 1.5-1.5.5.9 2.8 11.7 11.4 7.4 6 13.9 10.8 14.4 10.7.4 0 1.8-6.9 3-15.3s2.4-16.8 2.7-18.6c.3-2.1.1-3.2-.7-3.1-.7.1-8.6 1-17.5 2zm-7.9 3.6c-.7.2-2.1.2-3 0-1-.3-.4-.5 1.2-.5 1.7 0 2.4.2 1.8.5zM496.5 534.5c.6.2 21 2 45.5 3.9 24.5 2 46.1 3.8 48 4 2.5.3 2.9.2 1.5-.4-1.7-.7-90.5-8.2-94.5-7.9-.8 0-1 .2-.5.4zM656.1 551.1c-3.5 4.4-6.1 8.3-5.8 8.5.3.3 5-1.3 10.5-3.6 7.2-3 9.9-4.6 9.5-5.6-.3-.8-1.7-1.5-3.2-1.5-2.3-.2-2.4-.2-.3-.6 2.6-.5 3-3.3.5-3.3-1.5 0-1.6-.2-.3-1 1.2-.8 1.1-1-.6-1-2.1 0-3.9 2.4-3 3.8.2.4-.3 1.3-1.1 2.1-1.3 1.2-1.4 1.1-.8-1 .4-1.3 1-3 1.2-3.7 1-2.6-.6-.9-6.6 6.9zM670 546.5c0 .8.5 1.5 1 1.5.6 0 1-.7 1-1.5s-.4-1.5-1-1.5c-.5 0-1 .7-1 1.5zM673 546.5c0 1 .9 1.5 2.7 1.5 2.9 0 2.9-.2-.4-1.9-1.9-1-2.3-.9-2.3.4zM672 550c0 .5.7.7 1.5.4.8-.4 1.5-.8 1.5-1 0-.2-.7-.4-1.5-.4s-1.5.4-1.5 1zM705.7 556.4c-.4 1-.5 2.1-.2 2.4.9.9 1.7-.6 1.3-2.5-.3-1.7-.4-1.7-1.1.1z"/></svg>